<mxfile host="app.diagrams.net" modified="2020-12-23T19:20:05.426Z" agent="5.0 (Windows NT 10.0; Win64; x64) AppleWebKit/537.36 (KHTML, like Gecko) Chrome/87.0.4280.88 Safari/537.36" etag="AZ4G8ho2COYRUOY09Pgn" version="14.0.1" type="github">
  <diagram id="IemqXR9Vgc1Vpsk6rAGd" name="Page-1">
    <mxGraphModel dx="2272" dy="1906" grid="1" gridSize="10" guides="1" tooltips="1" connect="1" arrows="1" fold="1" page="1" pageScale="1" pageWidth="850" pageHeight="1100" math="0" shadow="0">
      <root>
        <mxCell id="0" />
        <mxCell id="1" parent="0" />
        <mxCell id="xJvSBco1bZGAdOFnYoXc-16" style="edgeStyle=orthogonalEdgeStyle;rounded=0;orthogonalLoop=1;jettySize=auto;html=1;entryX=0;entryY=0.5;entryDx=0;entryDy=0;entryPerimeter=0;fillColor=#d5e8d4;strokeColor=#82b366;" parent="1" source="-ZNplJX96d4Bv-DzFuM_-6" target="xJvSBco1bZGAdOFnYoXc-1" edge="1">
          <mxGeometry relative="1" as="geometry">
            <mxPoint x="700" y="80" as="targetPoint" />
            <Array as="points">
              <mxPoint x="272" y="20" />
              <mxPoint x="700" y="20" />
              <mxPoint x="700" y="75" />
            </Array>
          </mxGeometry>
        </mxCell>
        <mxCell id="-ZNplJX96d4Bv-DzFuM_-6" value="" style="pointerEvents=1;shadow=0;dashed=0;html=1;strokeColor=none;labelPosition=center;verticalLabelPosition=bottom;verticalAlign=top;outlineConnect=0;align=center;shape=mxgraph.office.servers.virtual_web_server;fillColor=#2072B8;" parent="1" vertex="1">
          <mxGeometry x="250" y="122.5" width="44" height="55" as="geometry" />
        </mxCell>
        <mxCell id="-ZNplJX96d4Bv-DzFuM_-7" value="" style="pointerEvents=1;shadow=0;dashed=0;html=1;strokeColor=none;labelPosition=center;verticalLabelPosition=bottom;verticalAlign=top;outlineConnect=0;align=center;shape=mxgraph.office.servers.virtual_web_server;fillColor=#2072B8;" parent="1" vertex="1">
          <mxGeometry x="48" y="442.5" width="44" height="55" as="geometry" />
        </mxCell>
        <mxCell id="xJvSBco1bZGAdOFnYoXc-18" style="edgeStyle=orthogonalEdgeStyle;rounded=0;orthogonalLoop=1;jettySize=auto;html=1;entryX=0.119;entryY=0.2;entryDx=0;entryDy=0;entryPerimeter=0;fillColor=#d5e8d4;strokeColor=#82b366;" parent="1" source="-ZNplJX96d4Bv-DzFuM_-8" target="zR2l-9s-CgWY07TUg7OG-108" edge="1">
          <mxGeometry relative="1" as="geometry" />
        </mxCell>
        <mxCell id="-ZNplJX96d4Bv-DzFuM_-8" value="" style="pointerEvents=1;shadow=0;dashed=0;html=1;strokeColor=none;labelPosition=center;verticalLabelPosition=bottom;verticalAlign=top;outlineConnect=0;align=center;shape=mxgraph.office.servers.virtual_web_server;fillColor=#2072B8;" parent="1" vertex="1">
          <mxGeometry x="520" y="80" width="44" height="50" as="geometry" />
        </mxCell>
        <mxCell id="zR2l-9s-CgWY07TUg7OG-74" style="edgeStyle=orthogonalEdgeStyle;rounded=0;orthogonalLoop=1;jettySize=auto;html=1;" parent="1" source="-ZNplJX96d4Bv-DzFuM_-9" edge="1">
          <mxGeometry relative="1" as="geometry">
            <mxPoint x="540" y="200" as="targetPoint" />
          </mxGeometry>
        </mxCell>
        <mxCell id="zR2l-9s-CgWY07TUg7OG-152" value="HTTP:80" style="edgeLabel;html=1;align=center;verticalAlign=middle;resizable=0;points=[];" parent="zR2l-9s-CgWY07TUg7OG-74" vertex="1" connectable="0">
          <mxGeometry x="0.2952" relative="1" as="geometry">
            <mxPoint as="offset" />
          </mxGeometry>
        </mxCell>
        <mxCell id="zR2l-9s-CgWY07TUg7OG-77" style="edgeStyle=orthogonalEdgeStyle;rounded=0;orthogonalLoop=1;jettySize=auto;html=1;" parent="1" source="-ZNplJX96d4Bv-DzFuM_-9" edge="1">
          <mxGeometry relative="1" as="geometry">
            <mxPoint x="290" y="200" as="targetPoint" />
          </mxGeometry>
        </mxCell>
        <mxCell id="zR2l-9s-CgWY07TUg7OG-149" value="HTTP:80" style="edgeLabel;html=1;align=center;verticalAlign=middle;resizable=0;points=[];" parent="zR2l-9s-CgWY07TUg7OG-77" vertex="1" connectable="0">
          <mxGeometry x="0.1781" y="2" relative="1" as="geometry">
            <mxPoint as="offset" />
          </mxGeometry>
        </mxCell>
        <mxCell id="-ZNplJX96d4Bv-DzFuM_-9" value="" style="pointerEvents=1;shadow=0;dashed=0;html=1;strokeColor=none;fillColor=#505050;labelPosition=center;verticalLabelPosition=bottom;verticalAlign=top;outlineConnect=0;align=center;shape=mxgraph.office.devices.load_balancer;" parent="1" vertex="1">
          <mxGeometry x="406" y="210.5" width="59" height="39" as="geometry" />
        </mxCell>
        <mxCell id="zR2l-9s-CgWY07TUg7OG-51" style="edgeStyle=orthogonalEdgeStyle;rounded=0;orthogonalLoop=1;jettySize=auto;html=1;fillColor=#dae8fc;strokeColor=#6c8ebf;" parent="1" source="-ZNplJX96d4Bv-DzFuM_-10" target="-ZNplJX96d4Bv-DzFuM_-7" edge="1">
          <mxGeometry relative="1" as="geometry" />
        </mxCell>
        <mxCell id="zR2l-9s-CgWY07TUg7OG-126" value="SSH:22" style="edgeLabel;html=1;align=center;verticalAlign=middle;resizable=0;points=[];" parent="zR2l-9s-CgWY07TUg7OG-51" vertex="1" connectable="0">
          <mxGeometry x="-0.0733" y="-2" relative="1" as="geometry">
            <mxPoint x="1" as="offset" />
          </mxGeometry>
        </mxCell>
        <mxCell id="-ZNplJX96d4Bv-DzFuM_-10" value="" style="shape=image;html=1;verticalAlign=top;verticalLabelPosition=bottom;labelBackgroundColor=#ffffff;imageAspect=0;aspect=fixed;image=https://cdn0.iconfinder.com/data/icons/security-double-colour-blue-black-vol-2/52/fire__wall__firewall__security-128.png" parent="1" vertex="1">
          <mxGeometry x="361" y="406" width="128" height="128" as="geometry" />
        </mxCell>
        <mxCell id="zR2l-9s-CgWY07TUg7OG-2" value="DVWA NSG" style="text;html=1;align=center;verticalAlign=middle;resizable=0;points=[];autosize=1;" parent="1" vertex="1">
          <mxGeometry x="380" y="470" width="80" height="20" as="geometry" />
        </mxCell>
        <mxCell id="zR2l-9s-CgWY07TUg7OG-109" style="edgeStyle=orthogonalEdgeStyle;rounded=0;orthogonalLoop=1;jettySize=auto;html=1;entryX=0.222;entryY=1.15;entryDx=0;entryDy=0;entryPerimeter=0;" parent="1" target="zR2l-9s-CgWY07TUg7OG-8" edge="1">
          <mxGeometry relative="1" as="geometry">
            <mxPoint x="419.98" y="390" as="sourcePoint" />
            <Array as="points">
              <mxPoint x="420" y="333" />
              <mxPoint x="417" y="333" />
            </Array>
          </mxGeometry>
        </mxCell>
        <mxCell id="zR2l-9s-CgWY07TUg7OG-4" value="GTWeb1 10.0.0.5" style="text;html=1;align=center;verticalAlign=middle;resizable=0;points=[];autosize=1;" parent="1" vertex="1">
          <mxGeometry x="247" y="177.5" width="110" height="20" as="geometry" />
        </mxCell>
        <mxCell id="zR2l-9s-CgWY07TUg7OG-6" value="GTWeb2 10.0.0.6" style="text;html=1;align=center;verticalAlign=middle;resizable=0;points=[];autosize=1;" parent="1" vertex="1">
          <mxGeometry x="497" y="140" width="110" height="20" as="geometry" />
        </mxCell>
        <mxCell id="zR2l-9s-CgWY07TUg7OG-8" value="Load Balancer&lt;br&gt;40.122.133.197" style="text;html=1;align=center;verticalAlign=middle;resizable=0;points=[];autosize=1;" parent="1" vertex="1">
          <mxGeometry x="395" y="245" width="100" height="30" as="geometry" />
        </mxCell>
        <mxCell id="zR2l-9s-CgWY07TUg7OG-10" value="GreenTeamJumpbox" style="text;html=1;align=center;verticalAlign=middle;resizable=0;points=[];autosize=1;" parent="1" vertex="1">
          <mxGeometry x="35" y="510" width="130" height="20" as="geometry" />
        </mxCell>
        <mxCell id="zR2l-9s-CgWY07TUg7OG-15" value="cyberxsecurity/DVWA&lt;br&gt;80:80" style="text;html=1;align=center;verticalAlign=middle;resizable=0;points=[];autosize=1;" parent="1" vertex="1">
          <mxGeometry x="237" y="50" width="130" height="30" as="geometry" />
        </mxCell>
        <mxCell id="zR2l-9s-CgWY07TUg7OG-17" value="Cyberxsecurity/DVWA&lt;br&gt;80:80" style="text;html=1;align=center;verticalAlign=middle;resizable=0;points=[];autosize=1;" parent="1" vertex="1">
          <mxGeometry x="477" y="50" width="130" height="30" as="geometry" />
        </mxCell>
        <mxCell id="zR2l-9s-CgWY07TUg7OG-18" value="" style="points=[[0,0.5,0],[0.24,0,0],[0.5,0.28,0],[0.995,0.475,0],[0.5,0.72,0],[0.24,1,0]];verticalLabelPosition=bottom;html=1;verticalAlign=top;aspect=fixed;align=center;pointerEvents=1;shape=mxgraph.cisco19.key;fillColor=#005073;strokeColor=none;" parent="1" vertex="1">
          <mxGeometry x="164.56" y="162.5" width="44.44" height="20" as="geometry" />
        </mxCell>
        <mxCell id="zR2l-9s-CgWY07TUg7OG-19" value="" style="points=[[0,0.5,0],[0.24,0,0],[0.5,0.28,0],[0.995,0.475,0],[0.5,0.72,0],[0.24,1,0]];verticalLabelPosition=bottom;html=1;verticalAlign=top;aspect=fixed;align=center;pointerEvents=1;shape=mxgraph.cisco19.key;fillColor=#005073;strokeColor=none;" parent="1" vertex="1">
          <mxGeometry x="449.5" y="140" width="50" height="22.5" as="geometry" />
        </mxCell>
        <mxCell id="zR2l-9s-CgWY07TUg7OG-20" value="" style="points=[[0,0.5,0],[0.24,0,0],[0.5,0.28,0],[0.995,0.475,0],[0.5,0.72,0],[0.24,1,0]];verticalLabelPosition=bottom;html=1;verticalAlign=top;aspect=fixed;align=center;pointerEvents=1;shape=mxgraph.cisco19.key;fillColor=#005073;strokeColor=none;" parent="1" vertex="1">
          <mxGeometry x="15" y="530" width="50" height="22.5" as="geometry" />
        </mxCell>
        <mxCell id="zR2l-9s-CgWY07TUg7OG-26" value="id_rsa.pub" style="text;html=1;align=center;verticalAlign=middle;resizable=0;points=[];autosize=1;" parent="1" vertex="1">
          <mxGeometry x="150" y="182.5" width="70" height="20" as="geometry" />
        </mxCell>
        <mxCell id="zR2l-9s-CgWY07TUg7OG-27" value="id_rsa.pub" style="text;html=1;align=center;verticalAlign=middle;resizable=0;points=[];autosize=1;" parent="1" vertex="1">
          <mxGeometry x="439.5" y="162.5" width="70" height="20" as="geometry" />
        </mxCell>
        <mxCell id="zR2l-9s-CgWY07TUg7OG-28" value="id-_rsa.pub&amp;nbsp;" style="text;html=1;align=center;verticalAlign=middle;resizable=0;points=[];autosize=1;" parent="1" vertex="1">
          <mxGeometry y="550" width="80" height="20" as="geometry" />
        </mxCell>
        <mxCell id="zR2l-9s-CgWY07TUg7OG-32" value="CyberxSecurity/ansible" style="text;html=1;align=center;verticalAlign=middle;resizable=0;points=[];autosize=1;" parent="1" vertex="1">
          <mxGeometry x="17" y="420" width="140" height="20" as="geometry" />
        </mxCell>
        <mxCell id="zR2l-9s-CgWY07TUg7OG-37" value="10.0.0.4&lt;br&gt;40.69.154.47" style="text;html=1;align=center;verticalAlign=middle;resizable=0;points=[];autosize=1;" parent="1" vertex="1">
          <mxGeometry x="75" y="520" width="90" height="30" as="geometry" />
        </mxCell>
        <mxCell id="zR2l-9s-CgWY07TUg7OG-47" style="edgeStyle=orthogonalEdgeStyle;rounded=0;orthogonalLoop=1;jettySize=auto;html=1;entryX=0.031;entryY=0.578;entryDx=0;entryDy=0;entryPerimeter=0;" parent="1" source="zR2l-9s-CgWY07TUg7OG-38" edge="1">
          <mxGeometry relative="1" as="geometry">
            <mxPoint x="375.46799999999985" y="713.9839999999999" as="targetPoint" />
            <Array as="points">
              <mxPoint x="240" y="714" />
              <mxPoint x="240" y="714" />
            </Array>
          </mxGeometry>
        </mxCell>
        <mxCell id="zR2l-9s-CgWY07TUg7OG-38" value="" style="shape=image;html=1;verticalAlign=top;verticalLabelPosition=bottom;labelBackgroundColor=#ffffff;imageAspect=0;aspect=fixed;image=https://cdn1.iconfinder.com/data/icons/amenities-solid-ii/48/_computer2-128.png" parent="1" vertex="1">
          <mxGeometry x="92" y="640" width="120" height="120" as="geometry" />
        </mxCell>
        <mxCell id="zR2l-9s-CgWY07TUg7OG-155" style="edgeStyle=orthogonalEdgeStyle;rounded=0;orthogonalLoop=1;jettySize=auto;html=1;" parent="1" source="zR2l-9s-CgWY07TUg7OG-43" target="-ZNplJX96d4Bv-DzFuM_-10" edge="1">
          <mxGeometry relative="1" as="geometry" />
        </mxCell>
        <mxCell id="zR2l-9s-CgWY07TUg7OG-43" value="home router" style="text;html=1;resizable=0;autosize=1;align=center;verticalAlign=middle;points=[];fillColor=none;strokeColor=none;rounded=0;" parent="1" vertex="1">
          <mxGeometry x="400" y="660" width="80" height="20" as="geometry" />
        </mxCell>
        <mxCell id="zR2l-9s-CgWY07TUg7OG-44" value="Home PC&lt;br&gt;24.118.182.137" style="text;html=1;align=center;verticalAlign=middle;resizable=0;points=[];autosize=1;" parent="1" vertex="1">
          <mxGeometry x="109" y="750" width="100" height="30" as="geometry" />
        </mxCell>
        <mxCell id="zR2l-9s-CgWY07TUg7OG-45" value="Home Network&lt;br&gt;24.118.182.137" style="text;html=1;align=center;verticalAlign=middle;resizable=0;points=[];autosize=1;" parent="1" vertex="1">
          <mxGeometry x="-10" y="745" width="100" height="30" as="geometry" />
        </mxCell>
        <mxCell id="zR2l-9s-CgWY07TUg7OG-80" value="" style="line;strokeWidth=2;html=1;" parent="1" vertex="1">
          <mxGeometry x="350" y="790" width="160" height="10" as="geometry" />
        </mxCell>
        <mxCell id="zR2l-9s-CgWY07TUg7OG-81" value="" style="line;strokeWidth=2;html=1;" parent="1" vertex="1">
          <mxGeometry x="510" y="790" width="160" height="10" as="geometry" />
        </mxCell>
        <mxCell id="zR2l-9s-CgWY07TUg7OG-82" value="" style="line;strokeWidth=2;html=1;" parent="1" vertex="1">
          <mxGeometry x="60" y="640" width="160" height="10" as="geometry" />
        </mxCell>
        <mxCell id="zR2l-9s-CgWY07TUg7OG-84" value="" style="line;strokeWidth=2;html=1;" parent="1" vertex="1">
          <mxGeometry x="222" y="640" width="160" height="10" as="geometry" />
        </mxCell>
        <mxCell id="zR2l-9s-CgWY07TUg7OG-156" style="edgeStyle=orthogonalEdgeStyle;rounded=0;orthogonalLoop=1;jettySize=auto;html=1;entryX=0.033;entryY=-0.225;entryDx=0;entryDy=0;entryPerimeter=0;" parent="1" source="zR2l-9s-CgWY07TUg7OG-86" target="zR2l-9s-CgWY07TUg7OG-139" edge="1">
          <mxGeometry relative="1" as="geometry" />
        </mxCell>
        <mxCell id="zR2l-9s-CgWY07TUg7OG-86" value="" style="line;strokeWidth=2;html=1;" parent="1" vertex="1">
          <mxGeometry x="382" y="640" width="160" height="10" as="geometry" />
        </mxCell>
        <mxCell id="zR2l-9s-CgWY07TUg7OG-88" value="" style="line;strokeWidth=2;html=1;" parent="1" vertex="1">
          <mxGeometry x="212" y="640" width="160" height="10" as="geometry" />
        </mxCell>
        <mxCell id="zR2l-9s-CgWY07TUg7OG-89" value="" style="line;strokeWidth=2;html=1;" parent="1" vertex="1">
          <mxGeometry x="520" y="640" width="160" height="10" as="geometry" />
        </mxCell>
        <mxCell id="zR2l-9s-CgWY07TUg7OG-90" value="" style="line;strokeWidth=2;direction=south;html=1;" parent="1" vertex="1">
          <mxGeometry x="670" y="640" width="10" height="160" as="geometry" />
        </mxCell>
        <mxCell id="zR2l-9s-CgWY07TUg7OG-91" value="" style="line;strokeWidth=2;html=1;" parent="1" vertex="1">
          <mxGeometry y="640" width="160" height="10" as="geometry" />
        </mxCell>
        <mxCell id="zR2l-9s-CgWY07TUg7OG-93" value="" style="line;strokeWidth=2;direction=south;html=1;" parent="1" vertex="1">
          <mxGeometry x="-20" y="640" width="10" height="160" as="geometry" />
        </mxCell>
        <mxCell id="zR2l-9s-CgWY07TUg7OG-95" value="" style="line;strokeWidth=2;html=1;" parent="1" vertex="1">
          <mxGeometry x="190" y="790" width="160" height="10" as="geometry" />
        </mxCell>
        <mxCell id="zR2l-9s-CgWY07TUg7OG-96" value="" style="line;strokeWidth=2;html=1;" parent="1" vertex="1">
          <mxGeometry x="40" y="790" width="160" height="10" as="geometry" />
        </mxCell>
        <mxCell id="zR2l-9s-CgWY07TUg7OG-98" value="" style="line;strokeWidth=2;html=1;" parent="1" vertex="1">
          <mxGeometry x="7" y="790" width="160" height="10" as="geometry" />
        </mxCell>
        <mxCell id="zR2l-9s-CgWY07TUg7OG-101" value="" style="line;strokeWidth=2;html=1;" parent="1" vertex="1">
          <mxGeometry x="140" y="300" width="160" height="10" as="geometry" />
        </mxCell>
        <mxCell id="zR2l-9s-CgWY07TUg7OG-112" style="edgeStyle=orthogonalEdgeStyle;rounded=0;orthogonalLoop=1;jettySize=auto;html=1;exitX=0.25;exitY=0.5;exitDx=0;exitDy=0;exitPerimeter=0;" parent="1" source="zR2l-9s-CgWY07TUg7OG-102" edge="1">
          <mxGeometry relative="1" as="geometry">
            <mxPoint x="340" y="300" as="targetPoint" />
          </mxGeometry>
        </mxCell>
        <mxCell id="zR2l-9s-CgWY07TUg7OG-102" value="" style="line;strokeWidth=2;html=1;" parent="1" vertex="1">
          <mxGeometry x="300" y="300" width="160" height="10" as="geometry" />
        </mxCell>
        <mxCell id="zR2l-9s-CgWY07TUg7OG-103" value="" style="line;strokeWidth=2;html=1;" parent="1" vertex="1">
          <mxGeometry x="460" y="300" width="160" height="10" as="geometry" />
        </mxCell>
        <mxCell id="zR2l-9s-CgWY07TUg7OG-105" value="" style="line;strokeWidth=2;direction=south;html=1;" parent="1" vertex="1">
          <mxGeometry x="135" y="150" width="10" height="160" as="geometry" />
        </mxCell>
        <mxCell id="zR2l-9s-CgWY07TUg7OG-106" value="" style="line;strokeWidth=2;direction=south;html=1;" parent="1" vertex="1">
          <mxGeometry x="135" width="10" height="160" as="geometry" />
        </mxCell>
        <mxCell id="zR2l-9s-CgWY07TUg7OG-107" value="" style="line;strokeWidth=2;direction=south;html=1;" parent="1" vertex="1">
          <mxGeometry x="610" y="150" width="10" height="160" as="geometry" />
        </mxCell>
        <mxCell id="zR2l-9s-CgWY07TUg7OG-108" value="" style="line;strokeWidth=2;direction=south;html=1;" parent="1" vertex="1">
          <mxGeometry x="610" width="10" height="160" as="geometry" />
        </mxCell>
        <mxCell id="zR2l-9s-CgWY07TUg7OG-111" value="BackEnd Pool" style="text;html=1;align=center;verticalAlign=middle;resizable=0;points=[];autosize=1;" parent="1" vertex="1">
          <mxGeometry x="160" y="280" width="90" height="20" as="geometry" />
        </mxCell>
        <mxCell id="zR2l-9s-CgWY07TUg7OG-116" value="" style="edgeStyle=elbowEdgeStyle;elbow=vertical;endArrow=classic;html=1;fillColor=#ffe6cc;strokeColor=#d79b00;" parent="1" edge="1">
          <mxGeometry width="50" height="50" relative="1" as="geometry">
            <mxPoint x="65" y="430" as="sourcePoint" />
            <mxPoint x="265" y="120" as="targetPoint" />
            <Array as="points">
              <mxPoint x="75" y="90" />
              <mxPoint x="195" y="108" />
            </Array>
          </mxGeometry>
        </mxCell>
        <mxCell id="zR2l-9s-CgWY07TUg7OG-124" value="SSH:22" style="edgeLabel;html=1;align=center;verticalAlign=middle;resizable=0;points=[];" parent="zR2l-9s-CgWY07TUg7OG-116" vertex="1" connectable="0">
          <mxGeometry x="-0.3719" relative="1" as="geometry">
            <mxPoint as="offset" />
          </mxGeometry>
        </mxCell>
        <mxCell id="zR2l-9s-CgWY07TUg7OG-118" value="" style="edgeStyle=elbowEdgeStyle;elbow=vertical;endArrow=classic;html=1;fillColor=#ffe6cc;strokeColor=#d79b00;" parent="1" edge="1">
          <mxGeometry width="50" height="50" relative="1" as="geometry">
            <mxPoint x="65" y="140" as="sourcePoint" />
            <mxPoint x="518" y="90" as="targetPoint" />
            <Array as="points">
              <mxPoint x="505" y="90" />
              <mxPoint x="495" y="90" />
            </Array>
          </mxGeometry>
        </mxCell>
        <mxCell id="zR2l-9s-CgWY07TUg7OG-122" value="SHH:22" style="edgeLabel;html=1;align=center;verticalAlign=middle;resizable=0;points=[];" parent="zR2l-9s-CgWY07TUg7OG-118" vertex="1" connectable="0">
          <mxGeometry x="0.6421" relative="1" as="geometry">
            <mxPoint as="offset" />
          </mxGeometry>
        </mxCell>
        <mxCell id="zR2l-9s-CgWY07TUg7OG-127" value="Text" style="text;html=1;resizable=0;autosize=1;align=center;verticalAlign=middle;points=[];fillColor=none;strokeColor=none;rounded=0;" parent="1" vertex="1">
          <mxGeometry x="460" y="430" width="40" height="20" as="geometry" />
        </mxCell>
        <mxCell id="zR2l-9s-CgWY07TUg7OG-128" value="Text" style="text;html=1;resizable=0;autosize=1;align=center;verticalAlign=middle;points=[];fillColor=none;strokeColor=none;rounded=0;" parent="1" vertex="1">
          <mxGeometry x="460" y="430" width="40" height="20" as="geometry" />
        </mxCell>
        <mxCell id="zR2l-9s-CgWY07TUg7OG-129" value="Text" style="text;html=1;resizable=0;autosize=1;align=center;verticalAlign=middle;points=[];fillColor=none;strokeColor=none;rounded=0;" parent="1" vertex="1">
          <mxGeometry x="460" y="430" width="40" height="20" as="geometry" />
        </mxCell>
        <mxCell id="zR2l-9s-CgWY07TUg7OG-130" value="" style="line;strokeWidth=2;html=1;" parent="1" vertex="1">
          <mxGeometry x="140" width="160" height="10" as="geometry" />
        </mxCell>
        <mxCell id="zR2l-9s-CgWY07TUg7OG-131" value="" style="line;strokeWidth=2;html=1;" parent="1" vertex="1">
          <mxGeometry x="300" width="160" height="10" as="geometry" />
        </mxCell>
        <mxCell id="zR2l-9s-CgWY07TUg7OG-132" value="" style="line;strokeWidth=2;html=1;" parent="1" vertex="1">
          <mxGeometry x="460" width="160" height="10" as="geometry" />
        </mxCell>
        <mxCell id="zR2l-9s-CgWY07TUg7OG-134" value="" style="line;strokeWidth=2;html=1;" parent="1" vertex="1">
          <mxGeometry x="-15" y="640" width="160" height="10" as="geometry" />
        </mxCell>
        <mxCell id="zR2l-9s-CgWY07TUg7OG-135" value="" style="line;strokeWidth=2;html=1;" parent="1" vertex="1">
          <mxGeometry x="-15" y="790" width="160" height="10" as="geometry" />
        </mxCell>
        <mxCell id="zR2l-9s-CgWY07TUg7OG-136" value="ssh:22" style="text;html=1;resizable=0;autosize=1;align=center;verticalAlign=middle;points=[];fillColor=none;strokeColor=none;rounded=0;" parent="1" vertex="1">
          <mxGeometry x="410.5" y="580" width="50" height="20" as="geometry" />
        </mxCell>
        <mxCell id="zR2l-9s-CgWY07TUg7OG-139" value="HTTP:80" style="text;html=1;resizable=0;autosize=1;align=center;verticalAlign=middle;points=[];fillColor=none;strokeColor=none;rounded=0;" parent="1" vertex="1">
          <mxGeometry x="460" y="532.5" width="60" height="20" as="geometry" />
        </mxCell>
        <mxCell id="zR2l-9s-CgWY07TUg7OG-143" value="" style="shape=image;html=1;verticalAlign=top;verticalLabelPosition=bottom;labelBackgroundColor=#ffffff;imageAspect=0;aspect=fixed;image=https://cdn4.iconfinder.com/data/icons/BRILLIANT/networking/png/128/access_point.png" parent="1" vertex="1">
          <mxGeometry x="382" y="672" width="128" height="128" as="geometry" />
        </mxCell>
        <mxCell id="xJvSBco1bZGAdOFnYoXc-1" value="" style="aspect=fixed;pointerEvents=1;shadow=0;dashed=0;html=1;strokeColor=none;labelPosition=center;verticalLabelPosition=bottom;verticalAlign=top;align=center;fillColor=#00188D;shape=mxgraph.mscae.enterprise.web_server" parent="1" vertex="1">
          <mxGeometry x="725" y="50" width="38" height="50" as="geometry" />
        </mxCell>
        <mxCell id="xJvSBco1bZGAdOFnYoXc-7" value="" style="edgeStyle=orthogonalEdgeStyle;rounded=0;orthogonalLoop=1;jettySize=auto;html=1;fillColor=#d5e8d4;strokeColor=#82b366;" parent="1" source="xJvSBco1bZGAdOFnYoXc-2" target="xJvSBco1bZGAdOFnYoXc-1" edge="1">
          <mxGeometry relative="1" as="geometry">
            <Array as="points">
              <mxPoint x="754" y="210" />
              <mxPoint x="754" y="210" />
            </Array>
          </mxGeometry>
        </mxCell>
        <mxCell id="xJvSBco1bZGAdOFnYoXc-20" style="edgeStyle=orthogonalEdgeStyle;rounded=0;orthogonalLoop=1;jettySize=auto;html=1;" parent="1" source="9RwSC9w4jPB00GcFbge3-3" edge="1">
          <mxGeometry relative="1" as="geometry">
            <mxPoint x="490" y="470" as="targetPoint" />
            <Array as="points">
              <mxPoint x="600" y="470" />
            </Array>
          </mxGeometry>
        </mxCell>
        <mxCell id="xJvSBco1bZGAdOFnYoXc-27" value="ssh 22" style="edgeLabel;html=1;align=center;verticalAlign=middle;resizable=0;points=[];" parent="xJvSBco1bZGAdOFnYoXc-20" vertex="1" connectable="0">
          <mxGeometry x="-0.17" y="-6" relative="1" as="geometry">
            <mxPoint as="offset" />
          </mxGeometry>
        </mxCell>
        <mxCell id="xJvSBco1bZGAdOFnYoXc-2" value="" style="shape=image;html=1;verticalAlign=top;verticalLabelPosition=bottom;labelBackgroundColor=#ffffff;imageAspect=0;aspect=fixed;image=https://cdn0.iconfinder.com/data/icons/security-double-color-red-and-black-vol-2/52/fire__wall__firewall__security-128.png" parent="1" vertex="1">
          <mxGeometry x="690" y="406" width="128" height="128" as="geometry" />
        </mxCell>
        <mxCell id="xJvSBco1bZGAdOFnYoXc-3" value="Elk Network&lt;br&gt;10.1.0.4" style="text;html=1;align=center;verticalAlign=middle;resizable=0;points=[];autosize=1;" parent="1" vertex="1">
          <mxGeometry x="700" y="5" width="80" height="30" as="geometry" />
        </mxCell>
        <mxCell id="xJvSBco1bZGAdOFnYoXc-5" value="" style="endArrow=classic;html=1;entryX=0.44;entryY=1.042;entryDx=0;entryDy=0;entryPerimeter=0;" parent="1" source="zR2l-9s-CgWY07TUg7OG-143" target="xJvSBco1bZGAdOFnYoXc-2" edge="1">
          <mxGeometry width="50" height="50" relative="1" as="geometry">
            <mxPoint x="640" y="532.5" as="sourcePoint" />
            <mxPoint x="690" y="482.5" as="targetPoint" />
          </mxGeometry>
        </mxCell>
        <mxCell id="xJvSBco1bZGAdOFnYoXc-11" value="" style="endArrow=classic;html=1;" parent="1" edge="1">
          <mxGeometry width="50" height="50" relative="1" as="geometry">
            <mxPoint x="440" y="210" as="sourcePoint" />
            <mxPoint x="490" y="160" as="targetPoint" />
          </mxGeometry>
        </mxCell>
        <mxCell id="xJvSBco1bZGAdOFnYoXc-12" value="" style="endArrow=classic;html=1;" parent="1" edge="1">
          <mxGeometry width="50" height="50" relative="1" as="geometry">
            <mxPoint x="440" y="210" as="sourcePoint" />
            <mxPoint x="490" y="160" as="targetPoint" />
          </mxGeometry>
        </mxCell>
        <mxCell id="xJvSBco1bZGAdOFnYoXc-13" value="" style="endArrow=classic;html=1;" parent="1" edge="1">
          <mxGeometry width="50" height="50" relative="1" as="geometry">
            <mxPoint x="440" y="210" as="sourcePoint" />
            <mxPoint x="490" y="160" as="targetPoint" />
          </mxGeometry>
        </mxCell>
        <mxCell id="xJvSBco1bZGAdOFnYoXc-14" value="" style="endArrow=classic;html=1;" parent="1" edge="1">
          <mxGeometry width="50" height="50" relative="1" as="geometry">
            <mxPoint x="440" y="210" as="sourcePoint" />
            <mxPoint x="490" y="160" as="targetPoint" />
          </mxGeometry>
        </mxCell>
        <mxCell id="xJvSBco1bZGAdOFnYoXc-25" value="" style="endArrow=classic;html=1;entryX=0;entryY=1;entryDx=0;entryDy=0;entryPerimeter=0;fillColor=#ffe6cc;strokeColor=#d79b00;" parent="1" target="xJvSBco1bZGAdOFnYoXc-1" edge="1">
          <mxGeometry width="50" height="50" relative="1" as="geometry">
            <mxPoint x="730" y="400" as="sourcePoint" />
            <mxPoint x="710" y="330" as="targetPoint" />
          </mxGeometry>
        </mxCell>
        <mxCell id="xJvSBco1bZGAdOFnYoXc-28" value="Elk NSG" style="text;html=1;resizable=0;autosize=1;align=center;verticalAlign=middle;points=[];fillColor=none;strokeColor=none;rounded=0;" parent="1" vertex="1">
          <mxGeometry x="730" y="470" width="60" height="20" as="geometry" />
        </mxCell>
        <mxCell id="9RwSC9w4jPB00GcFbge3-1" value="" style="line;strokeWidth=2;direction=south;html=1;" vertex="1" parent="1">
          <mxGeometry x="610" y="310" width="10" height="160" as="geometry" />
        </mxCell>
        <mxCell id="9RwSC9w4jPB00GcFbge3-2" value="" style="line;strokeWidth=2;direction=south;html=1;" vertex="1" parent="1">
          <mxGeometry x="610" y="310" width="10" height="160" as="geometry" />
        </mxCell>
        <mxCell id="9RwSC9w4jPB00GcFbge3-3" value="" style="line;strokeWidth=2;direction=south;html=1;" vertex="1" parent="1">
          <mxGeometry x="660" width="10" height="540" as="geometry" />
        </mxCell>
        <mxCell id="9RwSC9w4jPB00GcFbge3-6" value="" style="line;strokeWidth=2;html=1;" vertex="1" parent="1">
          <mxGeometry x="664" y="-5" width="160" height="10" as="geometry" />
        </mxCell>
        <mxCell id="9RwSC9w4jPB00GcFbge3-7" value="" style="line;strokeWidth=2;direction=south;html=1;" vertex="1" parent="1">
          <mxGeometry x="824" width="10" height="540" as="geometry" />
        </mxCell>
        <mxCell id="9RwSC9w4jPB00GcFbge3-9" value="" style="line;strokeWidth=2;html=1;" vertex="1" parent="1">
          <mxGeometry x="664" y="533" width="160" height="10" as="geometry" />
        </mxCell>
        <mxCell id="9RwSC9w4jPB00GcFbge3-10" value="" style="line;strokeWidth=2;direction=south;html=1;" vertex="1" parent="1">
          <mxGeometry x="610" y="442.5" width="10" height="160" as="geometry" />
        </mxCell>
        <mxCell id="9RwSC9w4jPB00GcFbge3-12" value="" style="line;strokeWidth=2;html=1;" vertex="1" parent="1">
          <mxGeometry x="-20" y="600" width="640" height="10" as="geometry" />
        </mxCell>
        <mxCell id="9RwSC9w4jPB00GcFbge3-17" value="" style="line;strokeWidth=2;direction=south;html=1;" vertex="1" parent="1">
          <mxGeometry x="-15" width="10" height="603" as="geometry" />
        </mxCell>
        <mxCell id="9RwSC9w4jPB00GcFbge3-19" value="" style="line;strokeWidth=2;html=1;" vertex="1" parent="1">
          <mxGeometry x="-5" width="160" height="10" as="geometry" />
        </mxCell>
        <mxCell id="9RwSC9w4jPB00GcFbge3-20" value="Text" style="text;html=1;resizable=0;autosize=1;align=center;verticalAlign=middle;points=[];fillColor=none;strokeColor=none;rounded=0;" vertex="1" parent="1">
          <mxGeometry x="600" y="380" width="40" height="20" as="geometry" />
        </mxCell>
        <mxCell id="9RwSC9w4jPB00GcFbge3-22" value="ssH-22" style="text;html=1;align=center;verticalAlign=middle;resizable=0;points=[];autosize=1;" vertex="1" parent="1">
          <mxGeometry x="675" y="230" width="50" height="20" as="geometry" />
        </mxCell>
        <mxCell id="9RwSC9w4jPB00GcFbge3-23" value="HTTP&lt;br&gt;5601" style="text;html=1;align=center;verticalAlign=middle;resizable=0;points=[];autosize=1;" vertex="1" parent="1">
          <mxGeometry x="775" y="225" width="50" height="30" as="geometry" />
        </mxCell>
      </root>
    </mxGraphModel>
  </diagram>
</mxfile>
